<svg width="28" height="28" viewBox="0 0 28 28" fill="none" xmlns="http://www.w3.org/2000/svg">
<g clip-path="url(#clip0_1_249)">
<path d="M23 4H2V21H23V4Z" fill="#101111"/>
<path d="M19.9316 5.0115C18.6051 4.36025 17.4547 4.28786 15.9675 4.01305C15.9404 4.00775 14.9904 3.98654 14.9764 4.01305C14.7935 4.3612 15.1182 4.65451 14.9764 5.0115C13.3768 4.75525 11.5881 4.75525 10.0213 5.0115C9.87935 4.64657 10.205 4.3612 10.0213 4.01305C10.0073 3.98743 9.05733 4.00863 9.03024 4.01305C7.54383 4.28699 6.39341 4.35937 5.06612 5.0115C5.05463 5.0168 5.07266 5.00003 5.06612 5.0115C2.36807 9.32457 1.73045 13.8365 2.09303 17.9914C2.07826 17.9792 2.09468 18.0117 2.09303 17.9914C3.87313 19.3902 5.35587 20.4239 7.04818 20.9868C7.03094 21.0107 7.07527 20.9956 7.04818 20.9868C7.4485 20.4019 8.72428 19.6385 9.03024 18.9899C9.0483 18.9519 8.07612 19.0049 8.03921 18.9899C7.4732 18.7602 7.56663 18.3095 7.04818 17.9914C7.00717 17.9658 7.01045 18.0215 7.04818 17.9914C6.94401 18.0833 7.15728 17.904 7.04818 17.9914C7.02602 17.9808 7.06703 17.9746 7.04818 17.9914C10.4541 19.6553 14.5838 19.6553 17.9495 17.9914C17.9298 17.9747 17.9716 17.98 17.9495 17.9914C17.8396 17.904 18.0537 18.0834 17.9495 17.9914C17.9873 18.0215 17.9905 17.9658 17.9495 17.9914C17.4311 18.3156 17.5254 18.7611 16.9585 18.9899C16.9216 19.0049 15.9494 18.9519 15.9675 18.9899C16.28 19.6376 17.5566 20.4018 17.9495 20.9868C17.9225 20.9956 17.966 21.0115 17.9495 20.9868C19.65 20.4239 21.1245 19.3902 22.9047 17.9914C22.903 18.0118 22.9202 17.9792 22.9047 17.9914C23.3385 13.188 22.2818 8.71045 19.9316 5.0115C19.9431 5.0168 19.9258 4.99914 19.9316 5.0115ZM9.03024 15.9945C8.00481 15.9945 7.04818 14.2363 7.04818 12.9992C7.04818 11.7621 7.98843 11.0022 9.03024 11.0022C10.0802 11.0022 11.0287 11.7709 11.0123 12.9992C11.0123 14.2363 10.072 15.9945 9.03024 15.9945ZM15.9675 15.9945C14.942 15.9945 13.9854 14.2363 13.9854 12.9992C13.9854 11.7621 14.9257 11.0022 15.9675 11.0022C17.0175 11.0022 17.9659 11.7709 17.9495 12.9992C17.9495 14.2363 17.0175 15.9945 15.9675 15.9945Z" fill="white"/>
</g>
<defs>
<clipPath id="clip0_1_249">
<rect width="24" height="24" fill="white"/>
</clipPath>
</defs>
</svg>
