<svg width="28" height="28" viewBox="0 0 28 28" fill="none" xmlns="http://www.w3.org/2000/svg">
<g clip-path="url(#clip0_1_245)">
<path d="M20.977 6.21071C20.517 6.80819 19.6265 7.75336 18.9958 8.17812C18.9958 8.01337 18.9958 8.33419 18.9958 8.17812C19.0009 11.0124 18.094 14.0558 16.0239 16.0478C13.9537 18.0397 11.0086 19.0384 8.09899 18.9989C6.41686 19.0044 4.65485 18.7393 3.14589 18.0152C3.06452 17.9805 3.14558 18.1017 3.14589 18.0152C3.14589 17.8907 3.01806 17.0315 3.14589 17.0315C4.79938 16.9783 6.78907 17.0319 8.09899 16.0478C6.60235 16.0183 5.74685 14.4239 5.12713 13.0966C5.07985 13.1604 5.09584 13.0242 5.12713 13.0966C5.04664 13.0905 5.1744 13.0329 5.12713 13.0966C5.58199 13.1411 5.67889 13.2213 6.11775 13.0966C4.46558 12.7628 3.32356 11.7799 3.14589 10.1455C3.13958 10.0671 3.08043 9.20792 3.14589 9.16182C3.07146 9.13125 3.21134 9.11582 3.14589 9.16182C3.58925 9.3523 4.64257 10.1416 5.12713 10.1455C3.67944 9.22052 2.59517 6.82585 3.14589 5.22701C3.20274 5.07165 3.97039 5.25901 4.13651 5.22701C4.02322 5.10442 4.30262 5.195 4.13651 5.22701C6.09008 7.25118 9.21258 9.02793 12.0615 9.16182C11.9886 8.87834 11.0689 8.47038 11.0708 8.17812C11.0975 6.64566 12.5774 4.80203 14.0427 4.2433C15.5079 3.68458 16.9174 4.11946 18.0052 5.22701C18.7466 5.08949 19.3171 4.58301 19.9864 4.2433C20.0355 4.2135 20.928 4.2135 20.977 4.2433C21.0077 4.29106 21.0077 5.17925 20.977 5.22701C20.6528 5.94982 19.6906 5.80559 18.9958 6.21071C19.6042 6.14201 20.4028 6.41848 20.977 6.21071C21.0254 6.17867 20.9287 6.17867 20.977 6.21071C21.0176 6.22875 20.9651 6.16894 20.977 6.21071C21.002 6.17481 20.989 6.25248 20.977 6.21071Z" fill="white"/>
</g>
<defs>
<clipPath id="clip0_1_245">
<rect width="24" height="24" fill="white"/>
</clipPath>
</defs>
</svg>
